<svg version="1.1" xmlns="http://www.w3.org/2000/svg" xmlns:xlink="http://www.w3.org/1999/xlink" width="731.12451171875" height="316"><defs/><g><g transform="translate(-110,-141) scale(1,1)"><path fill="#C0C0C0" stroke="none" d="M 433 199 L 472 199 Q 482 199 482 209 L 482 228 Q 482 238 472 238 L 433 238 Q 423 238 423 228 L 423 209 Q 423 199 433 199 Z" opacity="0.2"/></g><g transform="translate(-110,-141) scale(1,1)"><path fill="#ffffff" stroke="none" d="M 426 192 L 465 192 Q 475 192 475 202 L 475 221 Q 475 231 465 231 L 426 231 Q 416 231 416 221 L 416 202 Q 416 192 426 192 Z"/></g><g transform="translate(-110,-141) scale(1,1)"><path fill="none" stroke="#000000" d="M 426 192 L 465 192 Q 475 192 475 202 L 475 221 Q 475 231 465 231 L 426 231 Q 416 231 416 221 L 416 202 Q 416 192 426 192 Z" stroke-miterlimit="10"/></g><g transform="translate(-110,-141) scale(1,1)"><g><path fill="none" stroke="none"/><text fill="#000000" stroke="none" font-family="Arial" font-size="13px" font-style="normal" font-weight="bold" text-decoration="none" x="431.049560546875" y="211.5">IDLE</text></g></g><g transform="translate(-110,-141) scale(1,1)"><path fill="#C0C0C0" stroke="none" d="M 409 311 L 489.74267578125 311 Q 499.74267578125 311 499.74267578125 321 L 499.74267578125 340 Q 499.74267578125 350 489.74267578125 350 L 409 350 Q 399 350 399 340 L 399 321 Q 399 311 409 311 Z" opacity="0.2"/></g><g transform="translate(-110,-141) scale(1,1)"><path fill="#ffffff" stroke="none" d="M 402 304 L 482.74267578125 304 Q 492.74267578125 304 492.74267578125 314 L 492.74267578125 333 Q 492.74267578125 343 482.74267578125 343 L 402 343 Q 392 343 392 333 L 392 314 Q 392 304 402 304 Z"/></g><g transform="translate(-110,-141) scale(1,1)"><path fill="none" stroke="#000000" d="M 402 304 L 482.74267578125 304 Q 492.74267578125 304 492.74267578125 314 L 492.74267578125 333 Q 492.74267578125 343 482.74267578125 343 L 402 343 Q 392 343 392 333 L 392 314 Q 392 304 402 304 Z" stroke-miterlimit="10"/></g><g transform="translate(-110,-141) scale(1,1)"><g><path fill="none" stroke="none"/><text fill="#000000" stroke="none" font-family="Arial" font-size="13px" font-style="normal" font-weight="bold" text-decoration="none" x="396.5" y="323.5">DOORS_OPEN</text></g></g><g transform="translate(-110,-141) scale(1,1)"><path fill="#C0C0C0" stroke="none" d="M 425 415 L 476 415 Q 486 415 486 425 L 486 444 Q 486 454 476 454 L 425 454 Q 415 454 415 444 L 415 425 Q 415 415 425 415 Z" opacity="0.2"/></g><g transform="translate(-110,-141) scale(1,1)"><path fill="#ffffff" stroke="none" d="M 418 408 L 469 408 Q 479 408 479 418 L 479 437 Q 479 447 469 447 L 418 447 Q 408 447 408 437 L 408 418 Q 408 408 418 408 Z"/></g><g transform="translate(-110,-141) scale(1,1)"><path fill="none" stroke="#000000" d="M 418 408 L 469 408 Q 479 408 479 418 L 479 437 Q 479 447 469 447 L 418 447 Q 408 447 408 437 L 408 418 Q 408 408 418 408 Z" stroke-miterlimit="10"/></g><g transform="translate(-110,-141) scale(1,1)"><g><path fill="none" stroke="none"/><text fill="#000000" stroke="none" font-family="Arial" font-size="13px" font-style="normal" font-weight="bold" text-decoration="none" x="417.13818359375" y="427.5">MOVING</text></g></g><g transform="translate(-110,-141) scale(1,1)"><path fill="none" stroke="#000000" d="M 432 231 L 432 304" stroke-miterlimit="10"/></g><g transform="translate(-110,-141) scale(1,1)"><path fill="none" stroke="#000000" d="M 427.790482243984 293.83732514237585 L 432 304 L 436.209517756016 293.83732514237585" stroke-miterlimit="10"/></g><g transform="translate(-110,-141) scale(1,1)"><g><path fill="none" stroke="none"/><text fill="#000000" stroke="none" font-family="Arial" font-size="13px" font-style="normal" font-weight="normal" text-decoration="none" x="312" y="267">order at current floor</text></g></g><g transform="translate(-110,-141) scale(1,1)"><path fill="none" stroke="#000000" d="M 472 343 L 472 360 L 522 360 L 522 336 L 493 336" stroke-miterlimit="10"/></g><g transform="translate(-110,-141) scale(1,1)"><path fill="none" stroke="#000000" d="M 503.16267485762415 331.790482243984 L 493 336 L 503.16267485762415 340.209517756016" stroke-miterlimit="10"/></g><g transform="translate(-110,-141) scale(1,1)"><g><path fill="none" stroke="none"/><text fill="#000000" stroke="none" font-family="Arial" font-size="13px" font-style="normal" font-weight="normal" text-decoration="none" x="527" y="355">new order at current floor</text></g></g><g transform="translate(-110,-141) scale(1,1)"><path fill="none" stroke="#000000" d="M 416 408 L 416 343" stroke-miterlimit="10"/></g><g transform="translate(-110,-141) scale(1,1)"><path fill="none" stroke="#000000" d="M 420.209517756016 353.16267485762415 L 416 343 L 411.790482243984 353.16267485762415" stroke-miterlimit="10"/></g><g transform="translate(-110,-141) scale(1,1)"><path fill="none" stroke="#000000" d="M 416 210 L 120 210 L 120 426 L 408 426" stroke-miterlimit="10"/></g><g transform="translate(-110,-141) scale(1,1)"><path fill="none" stroke="#000000" d="M 397.83732514237585 430.209517756016 L 408 426 L 397.83732514237585 421.790482243984" stroke-miterlimit="10"/></g><g transform="translate(-110,-141) scale(1,1)"><g><path fill="none" stroke="none"/><text fill="#000000" stroke="none" font-family="Arial" font-size="13px" font-style="normal" font-weight="normal" text-decoration="none" x="127" y="201">no orders at current floor, but order at further floor</text></g></g><g transform="translate(-110,-141) scale(1,1)"><path fill="none" stroke="#000000" d="M 464 304 L 464 231" stroke-miterlimit="10"/></g><g transform="translate(-110,-141) scale(1,1)"><path fill="none" stroke="#000000" d="M 468.209517756016 241.16267485762415 L 464 231 L 459.790482243984 241.16267485762415" stroke-miterlimit="10"/></g><g transform="translate(-110,-141) scale(1,1)"><g><path fill="none" stroke="none"/><text fill="#000000" stroke="none" font-family="Arial" font-size="13px" font-style="normal" font-weight="normal" text-decoration="none" x="472" y="276">no orders available</text></g></g><g transform="translate(-110,-141) scale(1,1)"><path fill="none" stroke="#000000" d="M 456 343 L 456 408" stroke-miterlimit="10"/></g><g transform="translate(-110,-141) scale(1,1)"><path fill="none" stroke="#000000" d="M 451.790482243984 397.83732514237585 L 456 408 L 460.209517756016 397.83732514237585" stroke-miterlimit="10"/></g><g transform="translate(-110,-141) scale(1,1)"><g><path fill="none" stroke="none"/><text fill="#000000" stroke="none" font-family="Arial" font-size="13px" font-style="normal" font-weight="normal" text-decoration="none" x="460" y="389">no orders at current floor, further orders available</text></g></g><g transform="translate(-110,-141) scale(1,1)"><path fill="#ffffff" stroke="none" d="M 752 344 L 809.13720703125 344 L 819.13720703125 354 L 819.13720703125 445 L 752 445 L 752 344"/></g><g transform="translate(-110,-141) scale(1,1)"><path fill="none" stroke="#000000" d="M 752 344 L 809.13720703125 344 L 819.13720703125 354 L 819.13720703125 445 L 752 445 L 752 344 L 752 344" stroke-miterlimit="10"/></g><g transform="translate(-110,-141) scale(1,1)"><path fill="none" stroke="#000000" d="M 809.13720703125 344 L 809.13720703125 354 L 819.13720703125 354 L 809.13720703125 344" stroke-miterlimit="10"/></g><g transform="translate(-110,-141) scale(1,1)"><g><path fill="none" stroke="none"/><text fill="#000000" stroke="none" font-family="Arial" font-size="13px" font-style="normal" font-weight="normal" text-decoration="none" x="757" y="362">change</text><text fill="#000000" stroke="none" font-family="Arial" font-size="13px" font-style="normal" font-weight="normal" text-decoration="none" x="757" y="375">direction</text><text fill="#000000" stroke="none" font-family="Arial" font-size="13px" font-style="normal" font-weight="normal" text-decoration="none" x="757" y="388">if no</text><text fill="#000000" stroke="none" font-family="Arial" font-size="13px" font-style="normal" font-weight="normal" text-decoration="none" x="757" y="401">further</text><text fill="#000000" stroke="none" font-family="Arial" font-size="13px" font-style="normal" font-weight="normal" text-decoration="none" x="757" y="414">orders in</text><text fill="#000000" stroke="none" font-family="Arial" font-size="13px" font-style="normal" font-weight="normal" text-decoration="none" x="757" y="427">same</text><text fill="#000000" stroke="none" font-family="Arial" font-size="13px" font-style="normal" font-weight="normal" text-decoration="none" x="757" y="440">direction</text></g></g><g transform="translate(-110,-141) scale(1,1)"><path fill="none" stroke="#000000" d="M 456 375 L 456 376 L 752 376" stroke-miterlimit="10" stroke-dasharray="3"/></g><g transform="translate(-110,-141) scale(1,1)"><path fill="none" stroke="#000000" d="M 445 192 L 445 172 L 504 172 L 504 211 L 475 211" stroke-miterlimit="10"/></g><g transform="translate(-110,-141) scale(1,1)"><path fill="none" stroke="#000000" d="M 485.16267485762415 206.790482243984 L 475 211 L 485.16267485762415 215.209517756016" stroke-miterlimit="10"/></g><g transform="translate(-110,-141) scale(1,1)"><g><path fill="none" stroke="none"/><text fill="#000000" stroke="none" font-family="Arial" font-size="13px" font-style="normal" font-weight="normal" text-decoration="none" x="432" y="164">no orders available</text></g></g><g transform="translate(-110,-141) scale(1,1)"><path fill="#ffffff" stroke="none" d="M 544 168 L 601.13720703125 168 L 611.13720703125 178 L 611.13720703125 204 L 544 204 L 544 168"/></g><g transform="translate(-110,-141) scale(1,1)"><path fill="none" stroke="#000000" d="M 544 168 L 601.13720703125 168 L 611.13720703125 178 L 611.13720703125 204 L 544 204 L 544 168 L 544 168" stroke-miterlimit="10"/></g><g transform="translate(-110,-141) scale(1,1)"><path fill="none" stroke="#000000" d="M 601.13720703125 168 L 601.13720703125 178 L 611.13720703125 178 L 601.13720703125 168" stroke-miterlimit="10"/></g><g transform="translate(-110,-141) scale(1,1)"><g><path fill="none" stroke="none"/><text fill="#000000" stroke="none" font-family="Arial" font-size="13px" font-style="normal" font-weight="normal" text-decoration="none" x="549" y="186">change</text><text fill="#000000" stroke="none" font-family="Arial" font-size="13px" font-style="normal" font-weight="normal" text-decoration="none" x="549" y="199">direction</text></g></g><g transform="translate(-110,-141) scale(1,1)"><path fill="none" stroke="#000000" d="M 504 191 L 544 191" stroke-miterlimit="10" stroke-dasharray="3"/></g><g transform="translate(-110,-141) scale(1,1)"><path fill="#C0C0C0" stroke="none" d="M 777 287 L 828.12451171875 287 Q 838.12451171875 287 838.12451171875 297 L 838.12451171875 316 Q 838.12451171875 326 828.12451171875 326 L 777 326 Q 767 326 767 316 L 767 297 Q 767 287 777 287 Z" opacity="0.2"/></g><g transform="translate(-110,-141) scale(1,1)"><path fill="#ffffff" stroke="none" d="M 770 280 L 821.12451171875 280 Q 831.12451171875 280 831.12451171875 290 L 831.12451171875 309 Q 831.12451171875 319 821.12451171875 319 L 770 319 Q 760 319 760 309 L 760 290 Q 760 280 770 280 Z"/></g><g transform="translate(-110,-141) scale(1,1)"><path fill="none" stroke="#000000" d="M 770 280 L 821.12451171875 280 Q 831.12451171875 280 831.12451171875 290 L 831.12451171875 309 Q 831.12451171875 319 821.12451171875 319 L 770 319 Q 760 319 760 309 L 760 290 Q 760 280 770 280 Z" stroke-miterlimit="10"/></g><g transform="translate(-110,-141) scale(1,1)"><g><path fill="none" stroke="none"/><text fill="#000000" stroke="none" font-family="Arial" font-size="13px" font-style="normal" font-weight="bold" text-decoration="none" x="764.5" y="299.5">STOPPED</text></g></g><g transform="translate(-110,-141) scale(1,1)"><path fill="#C0C0C0" stroke="none" d="M 607 312.5 C 607 307.2532944 611.2532944 303 616.5 303 C 621.7467056 303 626 307.2532944 626 312.5 C 626 317.7467056 621.7467056 322 616.5 322 C 611.2532944 322 607 317.7467056 607 312.5 Z" opacity="0.2"/></g><g transform="translate(-110,-141) scale(1,1)"><path fill="#000000" stroke="none" d="M 600 305.5 C 600 300.2532944 604.2532944 296 609.5 296 C 614.7467056 296 619 300.2532944 619 305.5 C 619 310.7467056 614.7467056 315 609.5 315 C 604.2532944 315 600 310.7467056 600 305.5 Z"/></g><g transform="translate(-110,-141) scale(1,1)"><path fill="none" stroke="#000000" d="M 619 304 L 760 304" stroke-miterlimit="10"/></g><g transform="translate(-110,-141) scale(1,1)"><path fill="none" stroke="#000000" d="M 749.8373251423759 308.209517756016 L 760 304 L 749.8373251423758 299.790482243984" stroke-miterlimit="10"/></g><g transform="translate(-110,-141) scale(1,1)"><g><path fill="none" stroke="none"/><text fill="#000000" stroke="none" font-family="Arial" font-size="13px" font-style="normal" font-weight="normal" text-decoration="none" x="623" y="300">stop button pressed</text></g></g><g transform="translate(-110,-141) scale(1,1)"><path fill="#ffffff" stroke="none" d="M 216 296 L 288.419921875 296 L 298.419921875 306 L 298.419921875 345 L 216 345 L 216 296"/></g><g transform="translate(-110,-141) scale(1,1)"><path fill="none" stroke="#000000" d="M 216 296 L 288.419921875 296 L 298.419921875 306 L 298.419921875 345 L 216 345 L 216 296 L 216 296" stroke-miterlimit="10"/></g><g transform="translate(-110,-141) scale(1,1)"><path fill="none" stroke="#000000" d="M 288.419921875 296 L 288.419921875 306 L 298.419921875 306 L 288.419921875 296" stroke-miterlimit="10"/></g><g transform="translate(-110,-141) scale(1,1)"><g><path fill="none" stroke="none"/><text fill="#000000" stroke="none" font-family="Arial" font-size="13px" font-style="normal" font-weight="normal" text-decoration="none" x="221" y="314">hold door</text><text fill="#000000" stroke="none" font-family="Arial" font-size="13px" font-style="normal" font-weight="normal" text-decoration="none" x="221" y="327">open for X</text><text fill="#000000" stroke="none" font-family="Arial" font-size="13px" font-style="normal" font-weight="normal" text-decoration="none" x="221" y="340">seconds</text></g></g><g transform="translate(-110,-141) scale(1,1)"><path fill="none" stroke="#000000" d="M 392 322 L 299 322" stroke-miterlimit="10" stroke-dasharray="3"/></g></g></svg>